<svg width="30" height="30" fill="none" xmlns="http://www.w3.org/2000/svg"><g clip-path="url(#clip0_1:1989)"><path d="M10.72 16.44c.678.1 2.414-3.982 2.539-4.073.125-.09 2.624.107 2.294-1.225-.751.637-1.104-.053-1.07-.554.034-.502.67-1.567.838-1.495.167.072.456.666 1.057.116-.91.087-.696-1.245-.413-1.405.284-.159 1.383-.645 1.702-.954.318-.31.343-1.284.992-1.07.65.215.17 1.598.364 2.063.194.465 1.951 1.95 1.922 2.417-.03.47-.768.385-.752 1.04 0 .264.46.462.473.77.013.31-.498.543-.498.543s.438.12.353.584c-.087.463-.648.323-.827.42-.084.046.861 1.083.157 1.865-.636.748-3.815-.04-4.427.198-1.15.447-2.104 1.999-1.47 2.733.634.734 2.823 3.102 3.391 5.07.975 2.58-1.414 7.081-2.75 3.816-1.891 1.272 2.063 5.946 7.609-1.087 4.25-5.72 2.172-16.132.916-18.471C21.866 5.402 16.022-2.676 9.75.9c-7.803 4.261-4.092 14.574.97 15.54z" fill="#8B97AE"/></g><defs><clipPath id="clip0_1:1989"><path fill="#fff" d="M0 0h30v30H0z"/></clipPath></defs></svg>