<svg width="24" height="22" viewBox="0 0 24 22" fill="none" xmlns="http://www.w3.org/2000/svg">
<path d="M22.0615 2.40903C20.8048 1.1523 19.141 0.465429 17.3653 0.465429C15.5896 0.465429 13.9207 1.15739 12.664 2.41412L12.0076 3.07047L11.3411 2.40395C10.0844 1.14722 8.41045 0.450165 6.63475 0.450165C4.86413 0.450165 3.19528 1.14213 1.94363 2.39377C0.686904 3.6505 -0.00506011 5.31935 2.78603e-05 7.09505C2.78603e-05 8.87075 0.69708 10.5345 1.95381 11.7912L11.509 21.3465C11.6413 21.4787 11.8194 21.55 11.9924 21.55C12.1654 21.55 12.3435 21.4838 12.4757 21.3515L22.0513 11.8116C23.308 10.5549 24 8.88602 24 7.11032C24.0051 5.33462 23.3182 3.66576 22.0615 2.40903ZM21.0846 10.8398L11.9924 19.8964L2.92052 10.8245C1.92328 9.82729 1.37378 8.50442 1.37378 7.09505C1.37378 5.68569 1.91819 4.36281 2.91544 3.37066C3.90759 2.37851 5.23046 1.829 6.63475 1.829C8.04411 1.829 9.37208 2.37851 10.3693 3.37575L11.5192 4.52563C11.7889 4.79529 12.2213 4.79529 12.491 4.52563L13.6307 3.38592C14.628 2.38868 15.9559 1.83918 17.3602 1.83918C18.7645 1.83918 20.0873 2.38868 21.0846 3.38084C22.0818 4.37808 22.6262 5.70095 22.6262 7.11032C22.6313 8.51968 22.0818 9.84256 21.0846 10.8398Z" fill="#FF6E11"/>
</svg>
