<svg width="24" height="24" fill="none" xmlns="http://www.w3.org/2000/svg"><g clip-path="url(#clip0_1:43)"><path d="M22.061 3.41a6.588 6.588 0 00-4.696-1.945 6.604 6.604 0 00-4.701 1.95l-.656.655-.667-.666A6.62 6.62 0 006.635 1.45c-1.77 0-3.44.692-4.691 1.944A6.579 6.579 0 000 8.095c0 1.776.697 3.44 1.954 4.696l9.555 9.555c.132.133.31.204.483.204a.685.685 0 00.484-.198l9.575-9.54A6.604 6.604 0 0024 8.11a6.574 6.574 0 00-1.939-4.7zm-.976 8.43l-9.093 9.056-9.071-9.071a5.238 5.238 0 01-1.547-3.73c0-1.41.544-2.732 1.541-3.724a5.23 5.23 0 013.72-1.542c1.41 0 2.737.55 3.734 1.547l1.15 1.15c.27.27.702.27.972 0l1.14-1.14a5.247 5.247 0 013.73-1.547c1.404 0 2.726.55 3.724 1.542a5.233 5.233 0 011.541 3.73 5.212 5.212 0 01-1.541 3.729z" fill="#000"/></g><defs><clipPath id="clip0_1:43"><path fill="#fff" d="M0 0h24v24H0z"/></clipPath></defs></svg>