<svg width="30" height="30" fill="none" xmlns="http://www.w3.org/2000/svg"><path d="M22.5 11.719c0-.776-.63-1.407-1.406-1.407h-.22c-3.837 0-7.646-.95-11.032-2.75a4.592 4.592 0 00-2.342 4.02v2.827l.193-.347h.276a3.754 3.754 0 013.75 3.75v.276L9.053 19.57A7.49 7.49 0 0015 22.5c3.711 0 6.793-2.711 7.388-6.255l-.826.825-.6-.601-.07.279a1.406 1.406 0 01-1.365 1.065h-.777v-.777c0-.645.44-1.208 1.065-1.364l.28-.07-.602-.601 3.007-3.007v-.274z" fill="#8B97AE"/><path d="M17.269 23.955l6.73.918a4.21 4.21 0 011.313.41V13.32l-1.885 1.885c-.093 3.832-2.749 7.031-6.318 7.955l.16.796zM6.623 15.987a8.592 8.592 0 01-.06-.987v-3.418a5.527 5.527 0 013.071-4.97l.22-.11.214.118a22.623 22.623 0 0010.805 2.755h.22c1.091 0 2.002.752 2.263 1.762l1.696-1.696C24 4.773 19.814 1.406 15 1.406c-5.686 0-10.313 4.626-10.313 10.313v7.306l.56-.56 1.376-2.478zm2.284 10.288v-1.652l.25-.132a3.069 3.069 0 001.582-2.21 8.439 8.439 0 01-2.511-2.252l-.91.506-2.404 2.403a3.06 3.06 0 001.806 1.73l.312.109v.331c0 1.36.808 2.585 2.059 3.121l.36.154-.086-.17a4.349 4.349 0 01-.458-1.938zM28.069 7.969a.53.53 0 00-.372.154L20.819 15l.744.743 6.877-6.877a.526.526 0 00-.372-.897z" fill="#8B97AE"/><path d="M8.238 15.013l-2.031 3.656.907.906 3.655-2.031a2.818 2.818 0 00-2.53-2.531zm15.635 10.79l-7.392-1.009-.29-1.45c-.39.055-.785.093-1.191.093-.403 0-.8-.031-1.192-.087l-.289 1.444-3.675.502v.98c0 .524.124 1.049.358 1.518l.4.8h16.083a3.303 3.303 0 00-2.812-2.791zM6.16 25.799l-.032.004a3.303 3.303 0 00-2.812 2.79H7.87a4.312 4.312 0 01-1.71-2.794zm-.535-6.386L1.56 23.478a.526.526 0 00.743.744l4.065-4.066-.743-.743z" fill="#8B97AE"/></svg>