<svg width="30" height="30" fill="none" xmlns="http://www.w3.org/2000/svg"><path d="M10.195 14.063H3.867A3.872 3.872 0 010 10.194V3.867A3.872 3.872 0 013.867 0h6.328a3.872 3.872 0 013.867 3.867v6.328a3.872 3.872 0 01-3.867 3.867zM3.867 1.874a1.994 1.994 0 00-1.992 1.992v6.328c0 1.099.894 1.992 1.992 1.992h6.328a1.994 1.994 0 001.992-1.992V3.867a1.994 1.994 0 00-1.992-1.992H3.867zm22.266 12.189h-6.328a3.872 3.872 0 01-3.867-3.868V3.867A3.872 3.872 0 0119.805 0h6.328A3.872 3.872 0 0130 3.867v6.328a3.872 3.872 0 01-3.867 3.867zM19.805 1.874a1.994 1.994 0 00-1.992 1.992v6.328c0 1.099.893 1.992 1.992 1.992h6.328a1.994 1.994 0 001.992-1.992V3.867a1.994 1.994 0 00-1.992-1.992h-6.328zM22.969 30a7.04 7.04 0 01-7.032-7.031 7.04 7.04 0 017.032-7.032A7.04 7.04 0 0130 22.97 7.04 7.04 0 0122.969 30zm0-12.188a5.162 5.162 0 00-5.157 5.157 5.162 5.162 0 005.157 5.156 5.162 5.162 0 005.156-5.156 5.162 5.162 0 00-5.156-5.157zM10.195 30H3.867A3.872 3.872 0 010 26.133v-6.328a3.872 3.872 0 013.867-3.867h6.328a3.872 3.872 0 013.867 3.867v6.328A3.872 3.872 0 0110.195 30zM3.867 17.812a1.994 1.994 0 00-1.992 1.993v6.328c0 1.098.894 1.992 1.992 1.992h6.328a1.994 1.994 0 001.992-1.992v-6.328a1.994 1.994 0 00-1.992-1.992H3.867z" fill="#393D46"/></svg>