<svg width="30" height="30" fill="none" xmlns="http://www.w3.org/2000/svg"><g clip-path="url(#clip0_1:2005)"><path d="M14.998 7.07C8.443 7.07 3.11 12.404 3.11 18.96c0 4.782 2.845 9.078 7.247 10.948l.217.092h8.852l.217-.092A11.875 11.875 0 0026.89 18.96C26.888 12.404 21.555 7.07 15 7.07zm3.948 20.614H11.05a9.563 9.563 0 01-5.625-8.724c0-5.278 4.294-9.573 9.573-9.573.112 0 .223.005.334.008.61 1.882 1.262 3.76 1.595 5.71.239 1.402.212 2.802.016 4.184a3.68 3.68 0 00-.435.384c-2.472 2.56-9.692 0-9.692 0a8.184 8.184 0 004.987 7.535h6.39a8.184 8.184 0 004.986-7.535s-3.06-1.864-5.493-.817a14.801 14.801 0 00-.044-3.645c-.277-1.968-.935-3.868-1.56-5.761 4.77.54 8.49 4.598 8.49 9.51a9.563 9.563 0 01-5.626 8.724zM13.532 3.172V1.357h-.618V.662h4.54V5.72h1.018v1.043h-6.948V5.719h1.39V3.172h.618zm-6.713.296a.102.102 0 01.014-.08.098.098 0 01.066-.044l.388-.085a.104.104 0 01.123.08l.042.195a.103.103 0 01-.08.123l-.388.084a.103.103 0 01-.124-.08l-.041-.193zm2.386-2.356a.109.109 0 01-.005-.08l.062-.188a.105.105 0 01.133-.066l.643.216a.106.106 0 01.066.133l-.063.188a.105.105 0 01-.133.065l-.643-.215a.105.105 0 01-.04-.026.141.141 0 01-.02-.027zM7.702 6.04a.102.102 0 01-.02-.077.109.109 0 01.041-.07l.317-.236a.102.102 0 01.146.02l.12.16a.104.104 0 01-.021.145l-.317.238a.108.108 0 01-.077.02.108.108 0 01-.069-.04l-.12-.16zM6.917.366A.102.102 0 016.893.26l.063-.188A.109.109 0 017.008.01a.11.11 0 01.08-.005l.376.125c.055.02.084.078.066.133l-.063.188a.1.1 0 01-.052.06.105.105 0 01-.08.006L6.958.392a.094.094 0 01-.04-.026zm3.11 2.72l-.664.143a.105.105 0 01-.124-.08l-.041-.194a.104.104 0 01.014-.079.102.102 0 01.066-.045l.663-.142a.103.103 0 01.124.08l.042.193a.104.104 0 01-.08.124zm-2.157.155a.103.103 0 01.08-.123l.664-.144a.105.105 0 01.123.08l.042.195a.103.103 0 01-.08.123l-.663.144a.105.105 0 01-.124-.08L7.87 3.24zM7.938.709a.104.104 0 01-.025-.107l.063-.189a.105.105 0 01.131-.066l.644.216a.104.104 0 01.066.132l-.063.189a.104.104 0 01-.132.066L7.978.734a.1.1 0 01-.04-.025zm2.554.834a.103.103 0 01-.005-.08l.063-.187a.105.105 0 01.132-.066l.643.216a.104.104 0 01.066.132l-.063.188a.107.107 0 01-.132.066l-.643-.217a.094.094 0 01-.04-.024.124.124 0 01-.02-.028zm1.307.459a.105.105 0 01-.025-.107l.063-.188a.102.102 0 01.052-.06.111.111 0 01.08-.007l.377.126a.105.105 0 01.066.133l-.063.188a.105.105 0 01-.133.066l-.376-.126a.108.108 0 01-.041-.025zM8.583 5.248l.544-.408a.104.104 0 01.146.022l.119.157a.105.105 0 01-.021.147l-.543.408a.103.103 0 01-.077.019.105.105 0 01-.06-.03l-.008-.011-.12-.158a.103.103 0 01.02-.146zm3.86-2.993l.042.194a.108.108 0 01-.015.079.102.102 0 01-.065.045l-.095.02.113.152a.104.104 0 01-.02.146l-.318.239a.104.104 0 01-.136-.01.115.115 0 01-.01-.01l-.119-.16a.104.104 0 01.021-.146l.204-.153-.027.007a.102.102 0 01-.097-.03.097.097 0 01-.028-.05l-.042-.196a.106.106 0 01.014-.078.104.104 0 01.066-.045l.388-.084a.103.103 0 01.124.08zm-1.068.937a.097.097 0 01.07.041l.118.158a.104.104 0 01-.02.147L11 3.945a.106.106 0 01-.136-.01l-.01-.01-.12-.16a.104.104 0 01-.02-.076.11.11 0 01.04-.07l.544-.408a.1.1 0 01.077-.019zm.016-.71l.042.194a.104.104 0 01-.08.124l-.663.142a.103.103 0 01-.124-.08l-.041-.194a.101.101 0 01.013-.079.105.105 0 01.066-.044l.664-.144a.104.104 0 01.123.08zM9.67 4.433l.543-.406a.105.105 0 01.147.02l.119.158a.105.105 0 01-.021.147l-.543.407a.102.102 0 01-.078.02.1.1 0 01-.058-.03l-.01-.011-.12-.159a.104.104 0 01.021-.146z" fill="#8B97AE"/></g><defs><clipPath id="clip0_1:2005"><path fill="#fff" d="M0 0h30v30H0z"/></clipPath></defs></svg>