<svg width="30" height="30" fill="none" xmlns="http://www.w3.org/2000/svg"><path d="M9.468 10.446l.8.342.285-.666-.78-.334-.305.658zM10.78 7.5a.47.47 0 01-.044.196l-.572 1.24.757.324.796-1.856V1.875h-.938V7.5zm7.032-5.625h-.579a.47.47 0 00-.465.41l-.3 2.402h1.344V1.876zm1.982.411a.47.47 0 00-.465-.411h-.579v2.813h1.344l-.3-2.402zm-.326 3.339h-2.373L15.532 7.5h5.499l-1.563-1.875zm-12.437.469h2.813v.937H7.03v-.937zm0-3.75h2.813v.937H7.03v-.937zm0 1.875h2.813v.937H7.03V4.22zm6.563 22.969h9.375v.937h-9.375v-.938zm8.001-18.75h-6.63L13.629 26.25h9.302L21.595 8.437zm-.605 10.311c-.22.24-.366.397-.366.939 0 2.497-1.19 2.78-1.325 2.805a.47.47 0 01-.517-.288l-.502-1.255-.502 1.255a.47.47 0 01-.518.288c-.135-.025-1.324-.308-1.324-2.805 0-.542-.146-.7-.366-.939-.254-.276-.571-.619-.571-1.405 0-1.483 1.226-1.875 1.875-1.875.11 0 .423 0 1.406.796.983-.796 1.297-.796 1.406-.796.649 0 1.875.392 1.875 1.875 0 .786-.317 1.13-.571 1.405z" fill="#8B97AE"/><path d="M19.724 16.407c-.175.068-.692.442-1.137.824a.469.469 0 01-.611 0c-.446-.383-.963-.756-1.138-.824-.215.008-.9.1-.9.937 0 .42.121.551.322.77.26.28.615.666.615 1.573 0 .834.149 1.302.28 1.554l.69-1.728a.468.468 0 01.872 0l.69 1.728c.132-.252.28-.72.28-1.554 0-.907.356-1.292.615-1.573.201-.219.323-.35.323-.77 0-.837-.686-.93-.9-.937zm-11.758-2.71c0 3.767-.004 8.41-.483 10.323-.333 1.335-.137 3.075.43 3.8.237.305.451.305.522.305.07 0 .284 0 .522-.305.567-.725.763-2.465.43-3.8-.484-1.931-.484-7.972-.484-9.957a.47.47 0 01.038-.185l.955-2.228-.823-.353-1.107 2.4z" fill="#8B97AE"/></svg>