<svg width="28" height="28" fill="none" xmlns="http://www.w3.org/2000/svg"><g clip-path="url(#clip0_1:55)" filter="url(#filter0_d_1:55)"><path d="M23.823 20.98l-4.86-4.86a8.493 8.493 0 002.092-5.592C21.055 5.823 17.228 2 12.528 2 7.823 2 4 5.827 4 10.528c0 4.7 3.827 8.527 8.528 8.527a8.493 8.493 0 005.592-2.093l4.86 4.86a.584.584 0 00.843 0 .6.6 0 000-.842zM5.193 10.528c0-4.045 3.29-7.33 7.33-7.33 4.045 0 7.33 3.29 7.33 7.33s-3.285 7.335-7.33 7.335c-4.04 0-7.33-3.29-7.33-7.335z" fill="#fff"/></g><defs><clipPath id="clip0_1:55"><path fill="#fff" transform="translate(4 2)" d="M0 0h20v20H0z"/></clipPath><filter id="filter0_d_1:55" x="0" y="0" width="28" height="28" filterUnits="userSpaceOnUse" color-interpolation-filters="sRGB"><feFlood flood-opacity="0" result="BackgroundImageFix"/><feColorMatrix in="SourceAlpha" values="0 0 0 0 0 0 0 0 0 0 0 0 0 0 0 0 0 0 127 0" result="hardAlpha"/><feOffset dy="2"/><feGaussianBlur stdDeviation="2"/><feColorMatrix values="0 0 0 0 0 0 0 0 0 0 0 0 0 0 0 0 0 0 0.25 0"/><feBlend in2="BackgroundImageFix" result="effect1_dropShadow_1:55"/><feBlend in="SourceGraphic" in2="effect1_dropShadow_1:55" result="shape"/></filter></defs></svg>