<svg width="24" height="24" fill="none" xmlns="http://www.w3.org/2000/svg"><g clip-path="url(#clip0_1:46)"><path d="M7.205 15.802h13.224c1.5 0 2.723-1.223 2.723-2.723V7.456c0-.01 0-.02-.005-.03 0-.01-.005-.024-.005-.034 0-.01-.005-.02-.005-.03-.005-.01-.005-.02-.01-.034-.005-.01-.005-.02-.01-.03-.005-.01-.005-.02-.01-.029a.244.244 0 01-.015-.035.108.108 0 00-.014-.024l-.015-.03c-.005-.01-.01-.015-.015-.024-.005-.01-.015-.02-.02-.03-.005-.01-.01-.015-.02-.025-.004-.01-.014-.015-.02-.024-.004-.01-.014-.015-.019-.025-.005-.01-.015-.015-.02-.02l-.024-.024c-.01-.005-.015-.015-.025-.02-.01-.005-.02-.015-.03-.02-.01-.005-.014-.01-.024-.015a.103.103 0 01-.03-.02l-.03-.014-.029-.015-.03-.015c-.01-.005-.02-.005-.03-.01a.092.092 0 00-.034-.01c-.01 0-.02-.005-.024-.005-.015-.004-.025-.004-.04-.004-.005 0-.01-.005-.02-.005L5.82 4.54V2.203c0-.024 0-.049-.005-.069 0-.005 0-.01-.005-.02 0-.014-.005-.03-.005-.044-.005-.015-.005-.025-.01-.04 0-.01-.005-.014-.005-.024l-.015-.044c0-.005-.005-.015-.005-.02a.148.148 0 00-.02-.04c-.004-.005-.004-.014-.01-.02a.073.073 0 00-.019-.029l-.015-.025c-.005-.01-.01-.014-.014-.024-.005-.01-.015-.02-.02-.03l-.015-.015-.03-.03-.014-.014a.217.217 0 00-.035-.03c-.005-.005-.015-.01-.02-.014-.01-.01-.02-.015-.03-.025a.346.346 0 00-.039-.025c-.005-.005-.01-.005-.014-.01l-.065-.03L1.774.054a.665.665 0 00-.873.355c-.143.34.015.73.355.873l3.226 1.361v14.591a2.726 2.726 0 002.373 2.698 2.69 2.69 0 00-.385 1.38A2.691 2.691 0 009.158 24a2.695 2.695 0 002.688-2.688c0-.494-.133-.962-.37-1.357h5.988c-.236.4-.37.864-.37 1.357A2.691 2.691 0 0019.784 24a2.695 2.695 0 002.688-2.688 2.694 2.694 0 00-2.688-2.688H7.205c-.77 0-1.391-.627-1.391-1.391v-1.806a2.75 2.75 0 001.39.375zm3.315 5.505c0 .75-.612 1.356-1.357 1.356a1.362 1.362 0 01-1.356-1.356c0-.745.611-1.357 1.356-1.357a1.36 1.36 0 011.357 1.357zm10.624 0c0 .75-.612 1.356-1.356 1.356a1.362 1.362 0 01-1.357-1.356c0-.745.612-1.357 1.357-1.357a1.36 1.36 0 011.356 1.357zm-.715-6.837H7.205c-.77 0-1.391-.626-1.391-1.39V5.882L21.82 8.088v4.987c0 .774-.627 1.395-1.391 1.395z" fill="#000"/></g><defs><clipPath id="clip0_1:46"><path fill="#fff" d="M0 0h24v24H0z"/></clipPath></defs></svg>