<svg width="24" height="24" viewBox="0 0 24 24" fill="none" xmlns="http://www.w3.org/2000/svg">
<path d="M7.20484 15.8022H20.4289C21.9283 15.8022 23.1516 14.5789 23.1516 13.0795V7.51561C23.1516 7.51068 23.1516 7.50082 23.1516 7.49588C23.1516 7.48109 23.1516 7.47122 23.1516 7.45642C23.1516 7.44656 23.1516 7.43669 23.1467 7.42683C23.1467 7.41696 23.1417 7.40217 23.1417 7.3923C23.1417 7.38244 23.1368 7.37257 23.1368 7.36271C23.1319 7.35284 23.1319 7.34298 23.1269 7.32818C23.122 7.31831 23.122 7.30845 23.1171 7.29858C23.1121 7.28872 23.1121 7.27885 23.1072 7.26899C23.1023 7.25912 23.0973 7.24926 23.0924 7.23446C23.0875 7.2246 23.0825 7.21473 23.0776 7.2098C23.0727 7.19993 23.0677 7.19007 23.0628 7.1802C23.0579 7.17034 23.0529 7.16541 23.048 7.15554C23.0431 7.14568 23.0332 7.13581 23.0283 7.12595C23.0234 7.11608 23.0184 7.11115 23.0086 7.10128C23.0036 7.09142 22.9938 7.08649 22.9888 7.07662C22.9839 7.06676 22.974 7.06182 22.9691 7.05196C22.9642 7.04209 22.9543 7.03716 22.9494 7.03223C22.9395 7.02236 22.9346 7.01743 22.9247 7.00757C22.9148 7.00263 22.9099 6.99277 22.9 6.98784C22.8902 6.9829 22.8803 6.97304 22.8704 6.96811C22.8606 6.96317 22.8556 6.95824 22.8458 6.95331C22.8359 6.94838 22.8261 6.94344 22.8162 6.93358C22.8063 6.92865 22.7965 6.92371 22.7866 6.91878C22.7767 6.91385 22.7669 6.90892 22.757 6.90398C22.7471 6.89905 22.7373 6.89412 22.7274 6.88919C22.7175 6.88425 22.7077 6.88425 22.6978 6.87932C22.6879 6.87439 22.6731 6.86946 22.6633 6.86946C22.6534 6.86946 22.6435 6.86452 22.6386 6.86452C22.6238 6.85959 22.614 6.85959 22.5992 6.85959C22.5942 6.85959 22.5893 6.85466 22.5794 6.85466L5.8188 4.54132V2.20331C5.8188 2.17865 5.8188 2.15399 5.81387 2.13426C5.81387 2.12933 5.81387 2.12439 5.80894 2.11453C5.80894 2.09973 5.80401 2.08493 5.80401 2.07014C5.79907 2.05534 5.79907 2.04547 5.79414 2.03068C5.79414 2.02081 5.78921 2.01588 5.78921 2.00601C5.78428 1.99122 5.77934 1.97642 5.77441 1.96162C5.77441 1.95669 5.76948 1.94682 5.76948 1.94189C5.76455 1.92709 5.75961 1.91723 5.74975 1.90243C5.74482 1.8975 5.74482 1.88763 5.73988 1.8827C5.73495 1.87284 5.73002 1.86297 5.72015 1.85311C5.71522 1.84324 5.71029 1.83831 5.70536 1.82845C5.70042 1.81858 5.69549 1.81365 5.69056 1.80378C5.68563 1.79392 5.67576 1.78405 5.67083 1.77419C5.6659 1.76926 5.66096 1.76432 5.65603 1.75939C5.64617 1.74953 5.6363 1.73966 5.62644 1.7298C5.6215 1.72486 5.61657 1.71993 5.61164 1.715C5.60177 1.70513 5.59191 1.69527 5.57711 1.6854C5.57218 1.68047 5.56231 1.67554 5.55738 1.67061C5.54752 1.66074 5.53765 1.65581 5.52779 1.64594C5.51299 1.63608 5.49819 1.62621 5.48833 1.62128C5.48339 1.61635 5.47846 1.61635 5.47353 1.61142C5.4538 1.60155 5.42914 1.59169 5.40941 1.58182L1.77416 0.0527466C1.43381 -0.0902958 1.04415 0.0675441 0.901105 0.407886C0.758062 0.748228 0.915902 1.1379 1.25624 1.28094L4.4821 2.64231V5.66099V6.13945V9.80922V13.0893V17.2326C4.4821 18.6137 5.51792 19.7581 6.85463 19.9307C6.61294 20.3352 6.46989 20.8087 6.46989 21.3118C6.46989 22.7965 7.67836 24 9.1581 24C10.6379 24 11.8463 22.7916 11.8463 21.3118C11.8463 20.8186 11.7131 20.35 11.4764 19.9554H17.4644C17.2277 20.3549 17.0945 20.8186 17.0945 21.3118C17.0945 22.7965 18.303 24 19.7827 24C21.2625 24 22.4709 22.7916 22.4709 21.3118C22.4709 19.8321 21.2625 18.6236 19.7827 18.6236H7.20484C6.43537 18.6236 5.81387 17.9972 5.81387 17.2326V15.4273C6.21834 15.6641 6.69679 15.8022 7.20484 15.8022ZM10.5195 21.3069C10.5195 22.0566 9.90784 22.6633 9.16304 22.6633C8.41823 22.6633 7.8066 22.0517 7.8066 21.3069C7.8066 20.5621 8.41823 19.9504 9.16304 19.9504C9.90784 19.9504 10.5195 20.5571 10.5195 21.3069ZM21.1441 21.3069C21.1441 22.0566 20.5324 22.6633 19.7876 22.6633C19.0428 22.6633 18.4312 22.0517 18.4312 21.3069C18.4312 20.5621 19.0428 19.9504 19.7876 19.9504C20.5324 19.9504 21.1441 20.5571 21.1441 21.3069ZM20.4289 14.4704H7.20484C6.43537 14.4704 5.81387 13.844 5.81387 13.0795V9.79936V6.12958V5.88296L21.8198 8.08778V13.0745C21.8198 13.8489 21.1934 14.4704 20.4289 14.4704Z" fill="#FF6E11"/>
</svg>
