<svg width="30" height="30" fill="none" xmlns="http://www.w3.org/2000/svg"><g clip-path="url(#clip0_1:1961)" fill="#8B97AE"><path d="M17.472 8.682c-.803.536-1.588 1.063-2.402 1.496h12.636a1.44 1.44 0 00-1.525-1.071c-1.743 0-2.756-.4-3.095-1.224a2.185 2.185 0 01.334-1.915c-2.354.31-4.177 1.532-5.948 2.714zm-6.824 2.568v2.143h18.215V11.25H10.648zm13.928 9.107c0-1.48-2.158-2.678-4.82-2.678-2.664 0-4.822 1.199-4.822 2.678 0 1.48 2.158 2.679 4.821 2.679s4.822-1.2 4.822-2.679z"/><path d="M8.896 26.015a2.647 2.647 0 01-.39-1.372V13.928c0-.295.24-.535.535-.535h.536v-2.679c0-.296.24-.536.536-.536h1.071c2.128 0 3.861-1.159 5.696-2.387a42.548 42.548 0 011.81-1.162 11.128 11.128 0 00-7.506-2.88 11.25 11.25 0 00-2.288 22.266z"/><path d="M10.11 14.464h-.536v10.179c0 .888.72 1.607 1.607 1.607h17.143c.888 0 1.607-.72 1.607-1.607V14.464H10.11zm9.643 9.643c-3.304 0-5.893-1.647-5.893-3.75 0-2.103 2.589-3.75 5.893-3.75s5.893 1.647 5.893 3.75c0 2.103-2.589 3.75-5.893 3.75z"/></g><defs><clipPath id="clip0_1:1961"><path fill="#fff" d="M0 0h30v30H0z"/></clipPath></defs></svg>