<svg width="60" height="60" viewBox="0 0 60 60" fill="none" xmlns="http://www.w3.org/2000/svg">
<g clip-path="url(#clip0_736:3181)">
<path d="M34.9487 17.3644C33.3416 18.4359 31.7716 19.489 30.1445 20.3569H55.4164C55.0612 18.992 53.77 18.0848 52.3659 18.2141C48.8795 18.2141 46.8544 17.4136 46.1763 15.7657C45.7871 14.4546 46.034 13.0374 46.8439 11.9351C42.137 12.5555 38.4906 14.9997 34.9487 17.3644V17.3644Z" fill="#7367F0"/>
<path d="M21.2969 22.5V26.7857H57.7257V22.5H21.2969Z" fill="#7367F0"/>
<path d="M49.1531 40.7144C49.1531 37.7554 44.8359 35.3572 39.5101 35.3572C34.1843 35.3572 29.8672 37.7554 29.8672 40.7144C29.8672 43.6729 34.1843 46.0716 39.5101 46.0716C44.8359 46.0716 49.1531 43.6729 49.1531 40.7144Z" fill="#7367F0"/>
<path d="M17.7883 52.0299C17.2819 51.2038 17.0114 50.2548 17.0072 49.2859V27.8572C17.0072 27.2655 17.487 26.7857 18.0787 26.7857H19.1501V21.4286C19.1501 20.8369 19.6298 20.3571 20.2215 20.3571H22.3644C26.6193 20.3571 30.0863 18.0385 33.7557 15.5827C34.9098 14.8111 36.1131 14.0132 37.3745 13.2588C33.2634 9.53602 27.9104 7.48208 22.3644 7.49987C10.8287 7.49987 1.16166 16.2247 -0.0175443 27.6997C-1.19675 39.1753 6.49374 49.6835 17.7883 52.0299V52.0299Z" fill="#7367F0"/>
<path d="M20.2199 28.9287H19.1484V49.286C19.1484 51.0611 20.5877 52.5003 22.3627 52.5003H56.6487C58.4238 52.5003 59.8631 51.0611 59.8631 49.286V28.9287H20.2199ZM39.5057 48.2146C32.8972 48.2146 27.7199 44.9197 27.7199 40.7145C27.7199 36.5088 32.8972 33.2145 39.5057 33.2145C46.1143 33.2145 51.2916 36.5088 51.2916 40.7145C51.2916 44.9197 46.1143 48.2146 39.5057 48.2146Z" fill="#7367F0"/>
</g>
<defs>
<clipPath id="clip0_736:3181">
<rect width="60" height="60" fill="white"/>
</clipPath>
</defs>
</svg>
