<svg width="60" height="60" viewBox="0 0 60 60" fill="none" xmlns="http://www.w3.org/2000/svg">
<path d="M45 23.4376C45 21.887 43.7381 20.6251 42.1875 20.6251H41.7469C34.0734 20.6251 26.4562 18.7257 19.6847 15.1257C16.7822 16.7654 15 19.8029 15 23.1639V28.8189L15.3853 28.1251H15.9375C20.0728 28.1251 23.4375 31.4898 23.4375 35.6251V36.1773L18.1069 39.1389C20.9409 42.8251 25.3144 45.0001 30 45.0001C37.4222 45.0001 43.5853 39.5757 44.7759 32.4873L43.125 34.1382L41.9222 32.9354L41.7825 33.4942C41.4694 34.7467 40.3444 35.6251 39.0544 35.6251H37.5V34.0707C37.5 32.7798 38.3784 31.6548 39.63 31.3426L40.1888 31.2029L38.9869 30.0001L45 23.987V23.4376Z" fill="#8B97AE"/>
<path d="M34.5375 47.911L47.9981 49.7466C48.9347 49.8741 49.815 50.1619 50.6241 50.5679V26.6382L46.8534 30.4088C46.6688 38.0719 41.3569 44.4713 34.2188 46.3191L34.5375 47.911Z" fill="#8B97AE"/>
<path d="M13.2469 31.9744C13.1709 31.3191 13.125 30.6581 13.125 30V23.1638C13.125 18.9272 15.4791 15.1191 19.2684 13.2234L19.7072 13.005L20.1366 13.2394C26.7441 16.845 34.2178 18.75 41.7469 18.75H42.1875C44.3681 18.75 46.1906 20.2547 46.7119 22.275L50.1047 18.8822C47.9972 9.54563 39.6291 2.8125 30 2.8125C18.6272 2.8125 9.375 12.0647 9.375 23.4375V38.0494L10.4944 36.93L13.2469 31.9744Z" fill="#8B97AE"/>
<path d="M17.8147 52.5507V49.2461L18.3134 48.9826C20.0047 48.0882 21.1738 46.4261 21.4775 44.5604C19.5425 43.427 17.8297 41.9073 16.4553 40.0576L14.6347 41.0692L9.82812 45.8757C10.4788 47.4761 11.7922 48.7501 13.4403 49.3342L14.0647 49.5536V50.2164C14.0647 52.9361 15.6809 55.3867 18.1813 56.4582L18.9003 56.7657L18.7297 56.4254C18.1306 55.2292 17.8147 53.8886 17.8147 52.5507V52.5507Z" fill="#8B97AE"/>
<path d="M56.1352 15.9375C55.8586 15.9375 55.5877 16.0491 55.3917 16.245L41.6367 30L43.1236 31.4869L56.8786 17.7319C57.0745 17.5359 57.1861 17.265 57.1861 16.9884C57.1861 16.4091 56.7145 15.9375 56.1352 15.9375Z" fill="#8B97AE"/>
<path d="M16.4723 30.0251L12.4102 37.3367L14.2233 39.1498L21.5348 35.0876C21.2798 32.4139 19.1461 30.2801 16.4723 30.0251Z" fill="#8B97AE"/>
<path d="M47.7469 51.6056L32.9616 49.5891L32.3813 46.6875C31.6013 46.7981 30.8109 46.875 30 46.875C29.1947 46.875 28.3997 46.8112 27.6159 46.7006L27.0384 49.5891L19.6875 50.5913V52.5506C19.6875 53.5997 19.9359 54.6497 20.4047 55.5872L21.2044 57.1875H53.37C52.9556 54.3281 50.6766 52.0041 47.7469 51.6056V51.6056Z" fill="#8B97AE"/>
<path d="M12.3197 51.5972L12.2569 51.6056C9.32625 52.004 7.04719 54.3281 6.63281 57.1875H15.7378C13.9116 55.8478 12.6825 53.8481 12.3197 51.5972V51.5972Z" fill="#8B97AE"/>
<path d="M11.25 38.8257L3.12 46.9557C2.92406 47.1516 2.8125 47.4226 2.8125 47.6991C2.8125 48.2785 3.28406 48.7501 3.86344 48.7501C4.14 48.7501 4.41094 48.6385 4.60688 48.4426L12.7369 40.3126L11.25 38.8257Z" fill="#8B97AE"/>
</svg>
