<svg width="60" height="60" viewBox="0 0 60 60" fill="none" xmlns="http://www.w3.org/2000/svg">
<g clip-path="url(#clip0_736:3165)">
<path d="M45.0034 21.4286C45.0034 19.6536 42.6047 18.2144 39.6462 18.2144C36.6872 18.2144 34.2891 19.6536 34.2891 21.4286C34.2891 23.2037 36.6872 24.6429 39.6462 24.6429C42.6047 24.6429 45.0034 23.2037 45.0034 21.4286Z" fill="#7367F0"/>
<path d="M36.4353 42.8571C36.4353 41.082 33.5569 39.6428 30.0067 39.6428C26.456 39.6428 23.5781 41.082 23.5781 42.8571C23.5781 44.6322 26.456 46.0714 30.0067 46.0714C33.5569 46.0714 36.4353 44.6322 36.4353 42.8571Z" fill="#7367F0"/>
<path d="M16.6698 45.1125C17.1992 44.8478 17.8432 45.0628 18.1079 45.5927C18.3721 46.1222 18.1571 46.7657 17.6277 47.0304L13.9085 48.8892C18.5081 55.742 24.5417 60 30.0061 60C35.47 60 41.5036 55.742 46.1032 48.8892L42.3841 47.0356C41.8546 46.7714 41.6396 46.1274 41.9043 45.598C42.1685 45.068 42.8125 44.8535 43.342 45.1177L47.2557 47.0691C51.419 39.9395 53.6011 31.8274 53.5776 23.5714C53.6508 19.5928 52.8624 15.6451 51.2662 12.0002L47.6235 13.8213C47.0941 14.086 46.45 13.871 46.1853 13.3416C45.9211 12.8116 46.1361 12.1681 46.6656 11.9034L50.2665 10.1038C46.449 3.62653 39.4549 0 30.0061 0C20.5568 0 13.5627 3.62653 9.74106 10.098L13.342 11.8982C13.8714 12.1629 14.0864 12.8064 13.8222 13.3358C13.5575 13.8658 12.9135 14.0808 12.3841 13.8161L8.7413 11.9945C7.14567 15.6419 6.35884 19.5912 6.43469 23.5714C6.41063 31.8274 8.59272 39.9395 12.756 47.0691L16.6698 45.1125ZM30.0061 48.2143C25.1993 48.2143 21.4347 45.8569 21.4347 42.8571C21.4347 39.8574 25.1993 37.5 30.0061 37.5C34.8124 37.5 38.5776 39.8574 38.5776 42.8571C38.5776 45.8569 34.8124 48.2143 30.0061 48.2143ZM39.649 16.0714C43.8541 16.0714 47.149 18.4288 47.149 21.4286C47.149 24.4284 43.8541 26.7857 39.649 26.7857C35.4433 26.7857 32.149 24.4284 32.149 21.4286C32.149 18.4288 35.4433 16.0714 39.649 16.0714ZM33.2204 32.1429C33.2204 31.5512 33.6996 31.0714 34.2918 31.0714C34.8835 31.0714 35.3633 31.5512 35.3633 32.1429C35.3633 33.975 33.0603 35.3571 30.0061 35.3571C26.9514 35.3571 24.649 33.975 24.649 32.1429C24.649 31.5512 25.1282 31.0714 25.7204 31.0714C26.3121 31.0714 26.7918 31.5512 26.7918 32.1429C26.7918 32.4097 27.9318 33.2143 30.0061 33.2143C32.0799 33.2143 33.2204 32.4097 33.2204 32.1429ZM20.3633 16.0714C24.5684 16.0714 27.8633 18.4288 27.8633 21.4286C27.8633 24.4284 24.5684 26.7857 20.3633 26.7857C16.1576 26.7857 12.8633 24.4284 12.8633 21.4286C12.8633 18.4288 16.1576 16.0714 20.3633 16.0714Z" fill="#7367F0"/>
<path d="M25.7182 21.4286C25.7182 19.6536 23.3195 18.2144 20.361 18.2144C17.4021 18.2144 15.0039 19.6536 15.0039 21.4286C15.0039 23.2037 17.4021 24.6429 20.361 24.6429C23.3195 24.6429 25.7182 23.2037 25.7182 21.4286Z" fill="#7367F0"/>
</g>
<defs>
<clipPath id="clip0_736:3165">
<rect width="60" height="60" fill="white"/>
</clipPath>
</defs>
</svg>
