<svg width="60" height="60" viewBox="0 0 60 60" fill="none" xmlns="http://www.w3.org/2000/svg">
<path d="M27.0682 0.366753C24.0682 0.73342 19.6682 2.20009 17.0682 3.70009C16.0348 4.33342 13.8682 6.10009 12.3015 7.66675C7.96817 11.9334 6.2015 16.1001 6.23484 22.0334C6.26817 27.4001 8.03484 31.4001 12.1015 35.3334C15.4682 38.5334 16.1682 39.8334 16.1348 42.6668C16.1015 45.3001 15.1682 47.4334 12.7015 50.6668C11.7682 51.8668 11.0348 52.9668 11.0015 53.1334C11.0015 53.3001 11.6682 53.3334 12.4682 53.2668C17.2348 52.7001 22.4682 47.8001 23.8348 42.5001C24.3682 40.3334 24.5015 37.4334 24.0348 36.7001C23.8015 36.3334 23.6015 36.3334 22.9682 36.8001C20.8348 38.2668 18.2348 36.7001 16.4682 32.8668C15.7348 31.2668 15.5348 30.2334 15.4015 27.7001C15.2348 24.2001 15.6682 21.8668 17.1015 18.6668L17.9015 16.8334L18.5682 18.3668C19.5348 20.5334 21.0348 22.1001 24.6682 24.6668C29.7348 28.2668 31.0682 30.1001 31.0682 33.4668C31.0348 35.7668 30.2348 38.1334 28.4682 41.0334C27.8348 42.0668 27.3348 43.1001 27.3348 43.3001C27.3348 43.8001 28.6682 43.7334 29.6682 43.1668C30.8015 42.5001 31.0015 42.5334 31.0015 43.4334C31.0015 44.8668 29.3015 47.6001 27.1682 49.6001C26.0348 50.7001 22.5015 53.2001 19.3682 55.2001C16.2348 57.2001 13.6682 59.0001 13.6682 59.2001C13.6682 59.7334 17.3015 59.9668 20.6682 59.6334C29.7682 58.7334 38.8348 54.0001 46.0348 46.4001C53.2348 38.8001 55.6682 28.0668 52.4348 17.9001C48.5682 5.60009 38.9348 -1.06658 27.0682 0.366753Z" fill="#7367F0"/>
</svg>
