<svg width="60" height="60" viewBox="0 0 60 60" fill="none" xmlns="http://www.w3.org/2000/svg">
<path d="M5 35.0451C5 30.4981 8.59771 26.812 13.0357 26.812H46.9643C51.4023 26.812 55 30.4981 55 35.0451V48.7669C55 53.3138 51.4023 56.9999 46.9643 56.9999H13.0357C8.59771 56.9999 5 53.3138 5 48.7669V35.0451Z" fill="#8B97AE"/>
<path d="M11.25 21.5791C11.25 19.9222 12.5931 18.5791 14.25 18.5791H45.75C47.4069 18.5791 48.75 19.9222 48.75 21.5791V24.0678H11.25V21.5791Z" fill="#8B97AE"/>
<path d="M45.6239 15.8347H14.8203C19.2846 -0.174026 32.6775 2.11294 34.9096 2.11294C37.1417 2.57033 36.6953 3.02772 36.6953 3.94251C35.6004 7.86876 40.9405 9.679 43.6737 12.7029C44.723 13.8638 45.3412 15.0383 45.6239 15.8347Z" fill="#8B97AE"/>
<path d="M13.9286 33.886H46.0714C46.1012 33.886 46.1362 33.8948 46.1764 33.936C46.2177 33.9783 46.25 34.0425 46.25 34.1303V49.6817C46.25 49.7695 46.2177 49.8337 46.1764 49.876C46.1362 49.9173 46.1012 49.926 46.0714 49.926H13.9286C13.8988 49.926 13.8639 49.9173 13.8236 49.876C13.7823 49.8337 13.75 49.7695 13.75 49.6817V34.1303C13.75 34.0425 13.7823 33.9783 13.8236 33.936C13.8639 33.8948 13.8988 33.886 13.9286 33.886Z" stroke="white" stroke-width="5"/>
</svg>
