<svg width="60" height="60" viewBox="0 0 60 60" fill="none" xmlns="http://www.w3.org/2000/svg">
<g clip-path="url(#clip0_736:3153)">
<path d="M21.4347 32.8819C22.7924 33.0785 26.2642 24.9153 26.5138 24.7338C26.7634 24.5522 31.7631 24.9474 31.1032 22.285C29.5999 23.5576 28.8946 22.1791 28.9626 21.1769C29.0307 20.1728 30.3033 18.0417 30.638 18.1854C30.9727 18.331 31.5495 19.5185 32.7521 18.418C30.9311 18.5919 31.3604 15.9276 31.9258 15.608C32.493 15.2903 34.6922 14.3184 35.3295 13.7C35.9667 13.0817 36.0159 11.1321 37.315 11.5614C38.6141 11.9906 37.6553 14.7552 38.043 15.6855C38.4306 16.6159 41.944 19.5847 41.8854 20.5207C41.8268 21.4586 40.35 21.2903 40.3821 22.5989C40.3821 23.1283 41.303 23.5235 41.3276 24.1419C41.3541 24.7602 40.3329 25.2254 40.3329 25.2254C40.3329 25.2254 41.2085 25.4656 41.0383 26.394C40.8643 27.3206 39.743 27.0407 39.3837 27.2336C39.2154 27.3263 41.1063 29.4006 39.6976 30.9645C38.4269 32.4602 32.0676 30.885 30.8441 31.3597C28.5428 32.2541 26.6368 35.3571 27.9056 36.8264C29.1725 38.2938 33.5501 43.0306 34.6865 46.9657C36.6361 52.1242 31.8577 61.129 29.1858 54.5976C25.4039 57.1428 33.3118 66.4898 44.4042 52.423C52.904 40.9846 48.7477 20.1595 46.2365 15.4813C43.7291 10.805 32.0392 -5.35134 19.4946 1.80025C3.89046 10.3247 11.3125 30.9493 21.4347 32.8819Z" fill="#7367F0"/>
</g>
<defs>
<clipPath id="clip0_736:3153">
<rect width="60" height="60" fill="white"/>
</clipPath>
</defs>
</svg>
