<svg width="60" height="60" viewBox="0 0 60 60" fill="none" xmlns="http://www.w3.org/2000/svg">
<path d="M18.9375 20.8914L20.5357 21.576L21.1065 20.2443L19.5451 19.575L18.9375 20.8914Z" fill="#7367F0"/>
<path d="M21.5625 15C21.5625 15.1357 21.5331 15.2697 21.4763 15.3929L20.332 17.8719L21.8461 18.5209L23.4375 14.8076V3.75H21.5625V15Z" fill="#7367F0"/>
<path d="M35.6255 3.75H34.4683C34.2399 3.75031 34.0194 3.83388 33.8482 3.98505C33.677 4.13622 33.5667 4.34463 33.5381 4.57125L32.9375 9.375H35.6255V3.75Z" fill="#7367F0"/>
<path d="M39.5875 4.57125C39.5588 4.34463 39.4486 4.13622 39.2773 3.98505C39.1061 3.83388 38.8856 3.75031 38.6572 3.75H37.5V9.375H40.1879L39.5875 4.57125Z" fill="#7367F0"/>
<path d="M38.9342 11.25H34.1874L31.0625 15H42.0593L38.9342 11.25Z" fill="#7367F0"/>
<path d="M14.0625 12.1875H19.6875V14.0625H14.0625V12.1875Z" fill="#7367F0"/>
<path d="M14.0625 4.6875H19.6875V6.5625H14.0625V4.6875Z" fill="#7367F0"/>
<path d="M14.0625 8.4375H19.6875V10.3125H14.0625V8.4375Z" fill="#7367F0"/>
<path d="M27.1875 54.375H45.9375V56.25H27.1875V54.375Z" fill="#7367F0"/>
<path d="M43.194 16.875H29.9336L27.2617 52.5H45.866L43.194 16.875ZM41.9838 37.4988C41.5431 37.977 41.2513 38.2922 41.2513 39.375C41.2513 44.3707 38.8736 44.9367 38.6029 44.9859C38.3906 45.0234 38.1718 44.9866 37.9834 44.8818C37.795 44.7771 37.6484 44.6107 37.5681 44.4105L36.5638 41.8992L35.5595 44.4105C35.4793 44.6107 35.3327 44.7771 35.1442 44.8818C34.9558 44.9866 34.7371 45.0234 34.5248 44.9859C34.2541 44.9367 31.8763 44.3707 31.8763 39.375C31.8763 38.2922 31.5845 37.977 31.1439 37.4988C30.6353 36.9469 30.0013 36.2602 30.0013 34.6875C30.0013 31.7215 32.4541 30.9375 33.7513 30.9375C33.9705 30.9375 34.5974 30.9375 36.5638 32.5289C38.5302 30.9375 39.1572 30.9375 39.3763 30.9375C40.6736 30.9375 43.1263 31.7215 43.1263 34.6875C43.1263 36.2602 42.4924 36.9469 41.9838 37.4988Z" fill="#7367F0"/>
<path d="M39.4488 32.8137C39.0984 32.9508 38.0648 33.6973 37.173 34.4614C37.0031 34.6072 36.7865 34.6874 36.5625 34.6874C36.3385 34.6874 36.1219 34.6072 35.952 34.4614C35.0602 33.6973 34.0266 32.9508 33.6762 32.8137C33.2461 32.8301 31.875 33.0153 31.875 34.6875C31.875 35.5266 32.1188 35.7903 32.5207 36.2274C33.0398 36.7899 33.75 37.5598 33.75 39.375C33.75 41.0415 34.0477 41.979 34.3102 42.4817L35.6918 39.027C35.7613 38.8529 35.8814 38.7036 36.0366 38.5984C36.1918 38.4933 36.375 38.437 36.5625 38.437C36.75 38.437 36.9332 38.4933 37.0884 38.5984C37.2436 38.7036 37.3637 38.8529 37.4332 39.027L38.8148 42.4817C39.0773 41.979 39.375 41.0415 39.375 39.375C39.375 37.5598 40.0852 36.7899 40.6043 36.2274C41.0062 35.7903 41.25 35.5266 41.25 34.6875C41.25 33.0153 39.8789 32.8301 39.4488 32.8137V32.8137Z" fill="#7367F0"/>
<path d="M15.9359 27.3936C15.9359 34.9274 15.9272 44.213 14.9704 48.04C14.303 50.7094 14.6958 54.1896 15.8282 55.6398C16.3047 56.2502 16.7328 56.2502 16.8734 56.2502C17.014 56.2502 17.4421 56.2502 17.9186 55.6398C19.051 54.1896 19.4438 50.7094 18.7764 48.04C17.8109 44.1781 17.8109 32.0956 17.8109 28.1252C17.8109 27.9982 17.8367 27.8726 17.8867 27.7559L19.7969 23.2996L18.1508 22.5947L15.9359 27.3936Z" fill="#7367F0"/>
</svg>
