<svg width="60" height="60" viewBox="0 0 60 60" fill="none" xmlns="http://www.w3.org/2000/svg">
<g clip-path="url(#clip0_736:3116)">
<path d="M29.9967 14.14C16.8853 14.14 6.21875 24.8082 6.21875 37.9203C6.21875 47.4836 11.9074 56.0763 20.7111 59.816L21.1456 59.9991H38.8493L39.2846 59.816C48.0883 56.0779 53.777 47.4836 53.777 37.9203C53.7746 24.8082 43.108 14.14 29.9967 14.14ZM37.8927 55.368H22.1007C15.2514 52.2661 10.8499 45.4671 10.8499 37.9203C10.8499 27.3631 19.4387 18.7735 29.9967 18.7735C30.2201 18.7735 30.4413 18.7828 30.6632 18.7898C31.8844 22.5527 33.1886 26.3087 33.8535 30.2082C34.3315 33.0145 34.2787 35.8146 33.8853 38.5775C33.5858 38.8048 33.2933 39.0562 33.0156 39.3456C28.071 44.4663 13.6329 39.3456 13.6329 39.3456C13.6329 46.1165 17.7442 51.9247 23.6059 54.4144H36.386C42.2484 51.9247 46.3589 46.1165 46.3589 39.3456C46.3589 39.3456 40.2381 35.6175 35.3719 37.7124C35.6287 35.3087 35.6287 32.8795 35.2842 30.4216C34.7302 26.4864 33.4136 22.6854 32.1645 18.8992C41.7037 19.9807 49.1435 28.0955 49.1435 37.9211C49.1435 45.4671 44.742 52.2661 37.8927 55.368ZM27.0631 6.34336V2.71386H25.828V1.32428H34.9064V11.4377H36.9446V13.5232H23.048V11.4377H25.828V6.34336H27.0631ZM13.6376 6.93457C13.6252 6.88103 13.636 6.82207 13.6663 6.77707C13.6958 6.72974 13.7439 6.69638 13.7974 6.68707L14.5733 6.51793C14.6865 6.4931 14.7983 6.56681 14.8208 6.67853L14.9038 7.06802C14.917 7.12077 14.9069 7.17974 14.8766 7.22396C14.8464 7.26974 14.799 7.30465 14.744 7.31474L13.9681 7.48155C13.8959 7.49784 13.8253 7.47535 13.7772 7.42802C13.7493 7.39931 13.7284 7.3644 13.7206 7.3225L13.6376 6.93457ZM18.4091 2.22429C18.3859 2.17463 18.382 2.11722 18.3991 2.06524L18.5248 1.68816C18.5612 1.57877 18.6799 1.5198 18.7893 1.55627L20.0757 1.98687C20.1277 2.00472 20.1719 2.04429 20.196 2.09239C20.2208 2.14127 20.2247 2.20179 20.2076 2.25222L20.0811 2.62929C20.0454 2.73713 19.9267 2.7961 19.8166 2.75963L18.5302 2.32903C18.4999 2.31817 18.472 2.30187 18.4487 2.27782C18.4348 2.26231 18.42 2.24446 18.4091 2.22429ZM15.405 12.0778C15.3709 12.0336 15.3561 11.9777 15.3639 11.9242C15.3724 11.8698 15.4019 11.8186 15.4461 11.7853L16.0792 11.312C16.1716 11.2422 16.3003 11.2546 16.3717 11.3531L16.6115 11.6697C16.6448 11.7139 16.6588 11.7698 16.651 11.8241C16.6433 11.8761 16.6138 11.9288 16.5696 11.9622L15.9357 12.4378C15.8907 12.4711 15.8356 12.4851 15.7813 12.4789C15.7363 12.4711 15.6952 12.4517 15.6634 12.4199C15.6556 12.4122 15.6494 12.4044 15.644 12.3974L15.405 12.0778ZM13.8346 0.732298C13.7803 0.678764 13.7586 0.595746 13.7858 0.519711L13.9115 0.142641C13.9285 0.0922093 13.9665 0.0472091 14.0154 0.0216055C14.0659 -0.00167046 14.1233 -0.00632565 14.1753 0.0107434L14.9286 0.262124C15.0372 0.301693 15.097 0.418073 15.0605 0.52747L14.9348 0.902989C14.9178 0.956523 14.879 0.999972 14.8301 1.02325C14.7796 1.04885 14.7215 1.05351 14.6695 1.03644L13.9169 0.783505C13.8843 0.772643 13.8564 0.75635 13.8346 0.732298ZM20.0524 6.17189L18.7265 6.45819C18.6543 6.4737 18.5822 6.44965 18.5348 6.40232C18.5077 6.37517 18.486 6.34025 18.4782 6.29758L18.3952 5.90965C18.3835 5.85534 18.3944 5.79792 18.4247 5.75215C18.4534 5.7056 18.5023 5.67223 18.555 5.66137L19.8825 5.37663C19.9958 5.35102 20.1067 5.42473 20.1292 5.53568L20.213 5.92361C20.2371 6.03689 20.1657 6.14939 20.0524 6.17189ZM15.7402 6.48146C15.7278 6.42793 15.7386 6.37051 15.7689 6.32551C15.7991 6.28051 15.8465 6.24482 15.9008 6.23551L17.2275 5.94844C17.3408 5.92439 17.4502 5.99732 17.475 6.10905L17.558 6.49698C17.5821 6.60948 17.5107 6.7212 17.3974 6.74293L16.0722 7.03077C15.9993 7.04707 15.9272 7.02146 15.8798 6.97414C15.8527 6.94698 15.8317 6.91207 15.824 6.87017L15.7402 6.48146ZM15.8752 1.41661C15.8216 1.36385 15.7991 1.27928 15.8255 1.20325L15.9512 0.826178C15.9675 0.775747 16.0063 0.730747 16.0559 0.705919C16.1048 0.681867 16.1638 0.678764 16.215 0.694281L17.5022 1.12566C17.6116 1.16368 17.6713 1.28084 17.6341 1.38946L17.5076 1.7673C17.4719 1.87592 17.354 1.93644 17.2446 1.89998L15.9566 1.46704C15.9248 1.45773 15.8977 1.43834 15.8752 1.41661ZM20.9842 3.0855C20.9594 3.03662 20.9563 2.97765 20.9742 2.92645L21.0991 2.5517C21.1355 2.44153 21.2542 2.38334 21.3644 2.41981L22.6508 2.85196C22.7594 2.88843 22.8184 3.00636 22.7819 3.11576L22.6562 3.49128C22.6392 3.54326 22.6019 3.58671 22.5515 3.60998C22.5011 3.63403 22.4436 3.64024 22.3924 3.62317L21.1053 3.19024C21.0742 3.18093 21.0463 3.16386 21.0246 3.14136C21.0075 3.12196 20.9943 3.10645 20.9842 3.0855ZM23.5974 4.00335C23.5446 3.94904 23.5213 3.86602 23.5477 3.78998L23.6742 3.41291C23.6905 3.36248 23.7285 3.31593 23.7781 3.29265C23.8278 3.2686 23.886 3.26395 23.9372 3.27946L24.6913 3.5324C24.7441 3.55024 24.7875 3.58671 24.8116 3.63714C24.8364 3.68679 24.8411 3.74576 24.8232 3.79774L24.6975 4.17326C24.6603 4.28266 24.5424 4.34162 24.433 4.30516L23.6796 4.05378C23.647 4.04292 23.6199 4.02507 23.5974 4.00335ZM17.1662 10.4958L18.2532 9.6788C18.2974 9.64699 18.3525 9.63147 18.4076 9.63923C18.4619 9.64699 18.5108 9.6757 18.5457 9.72225L18.7839 10.038C18.8522 10.1288 18.8335 10.2607 18.742 10.3305L17.6558 11.1467C17.6123 11.1786 17.5557 11.1941 17.5014 11.1848C17.4572 11.1786 17.416 11.1592 17.3835 11.1273C17.3772 11.1196 17.3695 11.1118 17.3656 11.1033L17.1266 10.7867C17.0568 10.6952 17.0739 10.5633 17.1662 10.4958ZM24.8853 4.50999L24.9699 4.89792C24.9807 4.95068 24.9699 5.00964 24.9404 5.05542C24.9117 5.10197 24.8628 5.13533 24.8093 5.1462L24.6192 5.18732L24.8457 5.48991C24.9156 5.58146 24.8969 5.71413 24.8046 5.78241L24.1707 6.25879C24.1265 6.29215 24.0706 6.30689 24.0163 6.29913C23.9713 6.29215 23.9294 6.27198 23.8984 6.24017C23.8914 6.23241 23.8852 6.22543 23.8798 6.21767L23.6408 5.89956C23.571 5.80723 23.5904 5.67689 23.6827 5.60706L24.0893 5.30215L24.0349 5.31456C23.9605 5.33085 23.8899 5.3068 23.8418 5.25715C23.8146 5.23077 23.7937 5.19585 23.7859 5.15551L23.7029 4.76447C23.6912 4.71171 23.7013 4.65507 23.7308 4.60775C23.7611 4.56197 23.8084 4.52861 23.8627 4.51775L24.6386 4.35016C24.7518 4.32456 24.862 4.39904 24.8853 4.50999ZM22.7509 6.38448C22.8044 6.39069 22.8541 6.41784 22.8882 6.46594L23.1264 6.7825C23.1962 6.8725 23.1768 7.0044 23.0845 7.075L22.0006 7.88888C21.9161 7.95095 21.7989 7.93931 21.7283 7.86948C21.7198 7.86328 21.7143 7.85552 21.7081 7.84931L21.4684 7.53121C21.435 7.48621 21.4211 7.43112 21.4288 7.37681C21.4366 7.32095 21.4661 7.27207 21.5087 7.23715L22.5965 6.4225C22.6399 6.38913 22.6966 6.37517 22.7509 6.38448ZM22.7827 4.96309L22.8665 5.35102C22.8905 5.4643 22.8192 5.57525 22.7059 5.5993L21.3799 5.88404C21.3078 5.90034 21.2364 5.87629 21.1883 5.82818C21.1604 5.79948 21.1402 5.76456 21.1324 5.72344L21.0494 5.33551C21.0362 5.28275 21.0463 5.22378 21.0766 5.17801C21.1068 5.13223 21.1542 5.10042 21.2077 5.08878L22.5352 4.80249C22.6485 4.77921 22.7594 4.85059 22.7827 4.96309ZM19.3386 8.86647L20.4241 8.05259C20.4691 8.01923 20.5242 8.00371 20.58 8.01302C20.6336 8.02078 20.684 8.04949 20.7173 8.09371L20.9555 8.41026C21.0246 8.50259 21.0052 8.63294 20.9136 8.70276L19.8274 9.5182C19.7832 9.55001 19.7281 9.5663 19.6723 9.55622C19.628 9.55001 19.5877 9.53139 19.5551 9.49803C19.5481 9.49104 19.5419 9.48328 19.5357 9.47553L19.2975 9.15742C19.2285 9.06509 19.2471 8.93475 19.3386 8.86647Z" fill="#8B97AE"/>
</g>
<defs>
<clipPath id="clip0_736:3116">
<rect width="60" height="59.9992" fill="white"/>
</clipPath>
</defs>
</svg>
