<svg width="60" height="60" viewBox="0 0 60 60" fill="none" xmlns="http://www.w3.org/2000/svg">
<path d="M13.9998 5.00146H11.9999C11.4476 5.00146 11 5.44909 11 6.00137C11 6.55364 11.4476 7.00127 11.9999 7.00127H13.9998C14.5521 7.00127 14.9997 6.55364 14.9997 6.00137C14.9997 5.44909 14.5521 5.00146 13.9998 5.00146Z" fill="#8B97AE"/>
<path d="M59.9965 52.7784C60.0541 49.854 58.2022 47.2322 55.4268 46.3088C56.0456 44.0809 55.7731 41.6996 54.6669 39.6692C53.7576 37.7854 52.0044 36.4482 49.9472 36.0694C49.4807 32.5896 46.5085 29.9937 42.9976 29.9998C42.7271 30.0025 42.4726 29.8715 42.3176 29.6498C41.6876 28.8798 41.2577 26.7799 41.9776 23.2002C42.0881 22.659 41.7389 22.1309 41.1979 22.0204C41.132 22.0069 41.0649 22.0001 40.9978 22.0002C36.228 22.0002 32.4383 28.2699 31.9983 36.5194C29.8306 36.0815 27.5863 36.7398 25.9986 38.2793V22.5003C25.9986 22.2242 25.7748 22.0002 25.4986 22.0002H0.50001C0.223932 22.0002 0 22.2241 0 22.5003V58.9982C0 59.5504 0.44763 59.9981 0.999902 59.9981H54.9967H55.1867C58.4266 59.3581 60.0865 55.7983 59.9965 52.7784ZM12.9992 38.9993C7.99945 38.9993 3.99973 35.8594 3.99973 31.9997C3.99973 28.1399 7.99945 25.0002 12.9992 25.0002C17.9989 25.0002 21.9987 28.14 21.9987 31.9997C21.9987 35.8594 17.9989 38.9993 12.9992 38.9993ZM54.8868 57.9981H24.2086C22.0587 56.9982 21.3987 53.9984 22.0387 51.7285C22.3449 49.9321 24.0383 48.7156 25.8386 48.9987C26.3838 49.0862 26.8968 48.7151 26.9844 48.1698C27.0349 47.8553 26.9324 47.5355 26.7085 47.3088C24.4787 45.079 25.2286 42.3091 26.5486 40.6192C27.8685 38.9293 30.3484 37.6194 32.4882 38.8693C32.9633 39.151 33.5767 38.9942 33.8583 38.5192C33.9516 38.3619 33.9998 38.1822 33.9981 37.9993C33.9981 31.2397 36.538 25.42 39.7778 24.2201C39.3578 27.2199 39.7078 29.6098 40.7777 30.9097C41.3093 31.5966 42.1289 31.999 42.9976 31.9996C45.7588 31.9996 47.9973 34.2381 47.9973 36.9994C47.9973 37.5516 48.4449 37.9993 48.9972 37.9993C50.68 38.0726 52.1811 39.0797 52.887 40.6091C53.8869 42.549 54.047 45.1089 53.157 46.4387C52.8435 46.8934 52.958 47.5161 53.4127 47.8296C53.5451 47.9208 53.6974 47.9788 53.857 47.9986C56.2737 48.2969 58.0668 50.3844 57.9968 52.8184C58.0566 54.9983 56.9967 57.5082 54.8868 57.9981Z" fill="#8B97AE"/>
<path d="M0.579735 15.9907C0.612662 15.9973 0.646176 16.0007 0.679807 16.0007H25.3183C25.5944 15.9997 25.8175 15.775 25.8165 15.499C25.8163 15.4694 25.8136 15.4399 25.8083 15.4108C25.1479 12.6128 22.8438 10.5031 19.9986 10.0912V6.00136C19.9986 2.69159 16.8587 0.00170898 12.999 0.00170898C9.13931 0.00170898 5.99957 2.69147 5.99957 6.00136V10.0911C3.15712 10.5016 0.85382 12.6066 0.189875 15.4008C0.134683 15.6713 0.309282 15.9355 0.579735 15.9907ZM7.99949 6.00136C7.99949 3.79145 10.2394 2.00163 12.9992 2.00163C15.7591 2.00163 17.9989 3.79145 17.9989 6.00136V10.0011H7.99949V6.00136Z" fill="#8B97AE"/>
<path d="M12.9995 36.9995C16.8653 36.9995 19.9991 34.761 19.9991 31.9997C19.9991 29.2385 16.8653 27 12.9995 27C9.13381 27 6 29.2385 6 31.9997C6 34.761 9.13381 36.9995 12.9995 36.9995Z" fill="#8B97AE"/>
<path d="M0.50001 20.0007H25.4985C25.7746 20.0007 25.9985 19.7768 25.9985 19.5006V18.5007C25.9985 18.2247 25.7747 18.0007 25.4985 18.0007H0.50001C0.223932 18.0007 0 18.2245 0 18.5007V19.5006C0 19.7767 0.223815 20.0007 0.50001 20.0007Z" fill="#8B97AE"/>
</svg>
