<svg width="11" height="15" viewBox="0 0 11 15" fill="none" xmlns="http://www.w3.org/2000/svg">
<path d="M5.27344 0C2.36566 0 0 2.36566 0 5.27344C0 6.25588 0.272139 7.21465 0.787178 8.04645L4.97326 14.7923C5.05345 14.9215 5.19472 15 5.34665 15C5.34782 15 5.34897 15 5.35014 15C5.50339 14.9988 5.64495 14.9179 5.72367 14.7864L9.80306 7.9752C10.2897 7.16098 10.5469 6.22673 10.5469 5.27344C10.5469 2.36566 8.18121 0 5.27344 0ZM9.04881 7.52396L5.34 13.7164L1.53419 7.58338C1.10549 6.89104 0.873047 6.09229 0.873047 5.27344C0.873047 2.85029 2.85029 0.873047 5.27344 0.873047C7.69658 0.873047 9.6709 2.85029 9.6709 5.27344C9.6709 6.068 9.45378 6.84633 9.04881 7.52396Z" fill="black"/>
</svg>
