<svg width="8" height="8" viewBox="0 0 8 8" fill="none" xmlns="http://www.w3.org/2000/svg">
<path d="M7.60884 8C7.82487 8 8.001 7.82476 7.99044 7.60899C7.94557 6.69199 7.74312 5.78854 7.39104 4.93853C6.989 3.96793 6.39972 3.08601 5.65685 2.34315C4.91399 1.60028 4.03207 1.011 3.06147 0.608964C2.21146 0.256879 1.30801 0.0544334 0.391012 0.00956098C0.175236 -0.00099781 -4.76837e-07 0.175131 -4.76837e-07 0.391165C-4.76837e-07 0.6072 0.175263 0.781225 0.390981 0.792928C1.20519 0.837097 2.00701 1.01898 2.76208 1.33174C3.63777 1.69446 4.43344 2.22611 5.10366 2.89634C5.77389 3.56656 6.30554 4.36223 6.66826 5.23792C6.98102 5.99299 7.1629 6.79481 7.20707 7.60902C7.21877 7.82474 7.3928 8 7.60884 8Z" fill="#FF6E11"/>
</svg>
