<svg width="180" height="40" fill="none" xmlns="http://www.w3.org/2000/svg"><path d="M64.41 11.19c2.007 0 3.633 1.6 3.633 3.572s-1.626 3.571-3.633 3.571H52.3c-2.006 0-3.632-1.599-3.632-3.571 0-1.973 1.626-3.572 3.633-3.572h12.11z" fill="url(#paint0_linear_1:294)"/><path d="M64.41 32.857c2.007 0 3.633 1.599 3.633 3.571 0 1.973-1.626 3.572-3.633 3.572H52.3c-2.006 0-3.632-1.6-3.632-3.572s1.626-3.571 3.633-3.571h12.11z" fill="url(#paint1_linear_1:294)"/><path d="M61.988 22.143c2.007 0 3.633 1.599 3.633 3.571 0 1.973-1.626 3.572-3.633 3.572h-9.687c-2.007 0-3.633-1.6-3.633-3.572s1.626-3.571 3.633-3.571h9.687z" fill="url(#paint2_linear_1:294)"/><path d="M48.668 14.762c0-1.973 1.626-3.572 3.633-3.572 2.006 0 3.633 1.6 3.633 3.572v21.666c0 1.973-1.627 3.572-3.633 3.572-2.007 0-3.633-1.6-3.633-3.572V14.762z" fill="url(#paint3_linear_1:294)"/><path d="M87.418 11.19c2.006 0 3.633 1.6 3.633 3.572s-1.627 3.571-3.633 3.571h-12.11c-2.006 0-3.632-1.599-3.632-3.571 0-1.973 1.626-3.572 3.633-3.572h12.11z" fill="url(#paint4_linear_1:294)"/><path d="M87.418 32.857c2.006 0 3.633 1.599 3.633 3.571 0 1.973-1.627 3.572-3.633 3.572h-12.11c-2.006 0-3.632-1.6-3.632-3.572s1.626-3.571 3.633-3.571h12.11z" fill="url(#paint5_linear_1:294)"/><path d="M84.996 22.143c2.007 0 3.633 1.599 3.633 3.571 0 1.973-1.626 3.572-3.633 3.572H75.31c-2.007 0-3.633-1.6-3.633-3.572s1.626-3.571 3.633-3.571h9.687z" fill="url(#paint6_linear_1:294)"/><path d="M71.676 14.762c0-1.973 1.626-3.572 3.633-3.572 2.006 0 3.633 1.6 3.633 3.572v21.666c0 1.973-1.627 3.572-3.633 3.572-2.007 0-3.633-1.6-3.633-3.572V14.762z" fill="url(#paint7_linear_1:294)"/><path d="M179.658 34.638c.848 1.788.061 3.913-1.757 4.746-1.819.834-3.98.06-4.828-1.727l-10.236-21.579c-.847-1.788-.061-3.913 1.758-4.746 1.818-.834 3.98-.06 4.827 1.727l10.236 21.58z" fill="url(#paint8_linear_1:294)"/><path d="M152.408 34.697c-.848 1.788-.062 3.913 1.757 4.747 1.818.833 3.98.06 4.828-1.728l10.235-21.579c.848-1.787.061-3.912-1.757-4.746-1.819-.833-3.98-.06-4.828 1.728l-10.235 21.578z" fill="url(#paint9_linear_1:294)"/><path d="M121.064 16.093c.848-1.787.061-3.912-1.757-4.746-1.818-.833-3.98-.06-4.828 1.728l-10.235 21.579c-.848 1.787-.061 3.912 1.757 4.746 1.818.833 3.98.06 4.828-1.728l10.235-21.579z" fill="url(#paint10_linear_1:294)"/><path d="M93.814 16.034c-.848-1.788-.061-3.912 1.757-4.746 1.818-.834 3.98-.06 4.828 1.727l10.235 21.58c.848 1.787.061 3.912-1.757 4.745-1.818.834-3.98.06-4.828-1.727L93.814 16.034z" fill="url(#paint11_linear_1:294)"/><path d="M151.58 16.093c.848-1.787.061-3.912-1.757-4.746-1.819-.833-3.98-.06-4.828 1.728l-10.236 21.579c-.848 1.787-.061 3.912 1.758 4.746 1.818.833 3.979.06 4.827-1.728l10.236-21.579z" fill="url(#paint12_linear_1:294)"/><path d="M124.33 16.034c-.848-1.788-.062-3.912 1.757-4.746 1.818-.834 3.98-.06 4.827 1.727l10.236 21.58c.848 1.787.061 3.912-1.757 4.745-1.819.834-3.98.06-4.828-1.727L124.33 16.034z" fill="url(#paint13_linear_1:294)"/><path d="M5.465.003c-2.56 0-4.263 2.645-3.204 4.975l14.301 31.467a5.846 5.846 0 0010.64.014l10.36-22.642a2.022 2.022 0 00-1.839-2.863c-1.908 0-3.633-.238-4.48 1.547l-8.996 19.556L7.964 1.576a2.753 2.753 0 00-2.5-1.573z" fill="url(#paint14_linear_1:294)"/><path d="M20.509 25.564a.899.899 0 001.624.011l1.706-3.532a5.519 5.519 0 00.018-4.763L17.364 3.571C16.33 1.393 14.1 0 11.647 0a1.94 1.94 0 00-1.76 2.76L20.51 25.564z" fill="url(#paint15_linear_1:294)"/><path d="M28.51 36.806a2.075 2.075 0 001.879 2.956c2.315 0 4.417-1.323 5.363-3.38l9.679-21.007c.952-2.066-.557-4.423-2.832-4.423h-.746c-.755 0-1.441.436-1.761 1.12L28.509 36.806z" fill="url(#paint16_linear_1:294)"/><defs><linearGradient id="paint0_linear_1:294" x1="48.668" y1="11.19" x2="75.35" y2="29.135" gradientUnits="userSpaceOnUse"><stop stop-color="#CE9FFC"/><stop offset="1" stop-color="#7367F0"/></linearGradient><linearGradient id="paint1_linear_1:294" x1="48.668" y1="11.19" x2="75.35" y2="29.135" gradientUnits="userSpaceOnUse"><stop stop-color="#CE9FFC"/><stop offset="1" stop-color="#7367F0"/></linearGradient><linearGradient id="paint2_linear_1:294" x1="48.668" y1="11.19" x2="75.35" y2="29.135" gradientUnits="userSpaceOnUse"><stop stop-color="#CE9FFC"/><stop offset="1" stop-color="#7367F0"/></linearGradient><linearGradient id="paint3_linear_1:294" x1="48.668" y1="11.19" x2="75.35" y2="29.135" gradientUnits="userSpaceOnUse"><stop stop-color="#CE9FFC"/><stop offset="1" stop-color="#7367F0"/></linearGradient><linearGradient id="paint4_linear_1:294" x1="71.676" y1="11.19" x2="98.358" y2="29.135" gradientUnits="userSpaceOnUse"><stop stop-color="#CE9FFC"/><stop offset="1" stop-color="#7367F0"/></linearGradient><linearGradient id="paint5_linear_1:294" x1="71.676" y1="11.19" x2="98.358" y2="29.135" gradientUnits="userSpaceOnUse"><stop stop-color="#CE9FFC"/><stop offset="1" stop-color="#7367F0"/></linearGradient><linearGradient id="paint6_linear_1:294" x1="71.676" y1="11.19" x2="98.358" y2="29.135" gradientUnits="userSpaceOnUse"><stop stop-color="#CE9FFC"/><stop offset="1" stop-color="#7367F0"/></linearGradient><linearGradient id="paint7_linear_1:294" x1="71.676" y1="11.19" x2="98.358" y2="29.135" gradientUnits="userSpaceOnUse"><stop stop-color="#CE9FFC"/><stop offset="1" stop-color="#7367F0"/></linearGradient><linearGradient id="paint8_linear_1:294" x1="152.066" y1="10.996" x2="180.836" y2="38.916" gradientUnits="userSpaceOnUse"><stop stop-color="#CE9FFC"/><stop offset="1" stop-color="#7367F0"/></linearGradient><linearGradient id="paint9_linear_1:294" x1="152.066" y1="10.996" x2="180.836" y2="38.916" gradientUnits="userSpaceOnUse"><stop stop-color="#CE9FFC"/><stop offset="1" stop-color="#7367F0"/></linearGradient><linearGradient id="paint10_linear_1:294" x1="93.473" y1="10.952" x2="122.242" y2="38.873" gradientUnits="userSpaceOnUse"><stop stop-color="#CE9FFC"/><stop offset="1" stop-color="#7367F0"/></linearGradient><linearGradient id="paint11_linear_1:294" x1="93.473" y1="10.952" x2="122.242" y2="38.873" gradientUnits="userSpaceOnUse"><stop stop-color="#CE9FFC"/><stop offset="1" stop-color="#7367F0"/></linearGradient><linearGradient id="paint12_linear_1:294" x1="123.988" y1="10.952" x2="152.758" y2="38.873" gradientUnits="userSpaceOnUse"><stop stop-color="#CE9FFC"/><stop offset="1" stop-color="#7367F0"/></linearGradient><linearGradient id="paint13_linear_1:294" x1="123.988" y1="10.952" x2="152.758" y2="38.873" gradientUnits="userSpaceOnUse"><stop stop-color="#CE9FFC"/><stop offset="1" stop-color="#7367F0"/></linearGradient><linearGradient id="paint14_linear_1:294" x1="0" y1=".003" x2="39.857" y2="38.862" gradientUnits="userSpaceOnUse"><stop stop-color="#CE9FFC"/><stop offset="1" stop-color="#7367F0"/></linearGradient><linearGradient id="paint15_linear_1:294" x1="8.602" y1="0" x2="32.685" y2="14.465" gradientUnits="userSpaceOnUse"><stop stop-color="#CE9FFC"/><stop offset="1" stop-color="#7367F0"/></linearGradient><linearGradient id="paint16_linear_1:294" x1="27.125" y1="10.952" x2="54.275" y2="30.124" gradientUnits="userSpaceOnUse"><stop stop-color="#CE9FFC"/><stop offset="1" stop-color="#7367F0"/></linearGradient></defs></svg>